<svg id="eUkh5p14t0J1" xmlns="http://www.w3.org/2000/svg" xmlns:xlink="http://www.w3.org/1999/xlink" viewBox="0 0 400 360" shape-rendering="geometricPrecision" text-rendering="geometricPrecision">
<style><![CDATA[
#eUkh5p14t0J9_to {animation: eUkh5p14t0J9_to__to 8000ms linear infinite normal forwards}@keyframes eUkh5p14t0J9_to__to { 0% {transform: translate(241.877879px,131.089673px)} 2.5% {transform: translate(257.877879px,131.089673px)} 46.25% {transform: translate(225.877879px,131.089673px)} 48.75% {transform: translate(255.877879px,131.089673px)} 98.75% {transform: translate(226.877879px,131.089673px)} 100% {transform: translate(226.877879px,131.089673px)}} #eUkh5p14t0J11_to {animation: eUkh5p14t0J11_to__to 8000ms linear infinite normal forwards}@keyframes eUkh5p14t0J11_to__to { 0% {transform: translate(148.121234px,131.089671px)} 2.5% {transform: translate(164.121234px,131.089671px)} 46.25% {transform: translate(132.121234px,131.089671px)} 48.75% {transform: translate(162.121234px,131.089671px)} 98.75% {transform: translate(133.121234px,131.089671px)} 100% {transform: translate(133.121234px,131.089671px)}}
]]></style>
<path d="M380.5,374.77c-3.63-94.46.14-143.43-9.1-237.5-2.84-29-6.49-59.4-23.44-83.08-14.07-19.66-36.06-25.617052-59.1-32.977052s-153.274493-21.45-201.134493,0C62.875507,32.362948,51.19,55.45,45.82,82.16c-8.94,44.33-6.43,90-6.31,135.27L37.17,374.75Z" transform="translate(-6.47 0)" fill="#fcd06e"/><path d="M232.2,91.05c-14.653169,14.300702-19.25059,36.019314-11.649009,55.030927s25.90561,31.573336,46.379009,31.829073c2.044141.02127,4.08774-.078906,6.12-.3c22.031964-2.399224,39.942875-18.848708,44.204191-40.597384s-6.117499-43.741093-25.614953-54.277364-43.581389-7.167253-59.439238,8.314748ZM83.77,125c-.25338,20.478406,11.855291,39.0926,30.678805,47.161346s40.654122,4.002708,55.310526-10.301806s19.251672-36.029883,11.642673-55.043889-25.923487-31.571382-46.402004-31.815651c-2.044027-.029568-4.087927.067284-6.12.29C103.456372,78.107974,84.113781,99.422986,83.77,125Zm130.14-21.56c7.909227-17.777522,24.115026-30.479493,43.267315-33.912564s38.761019,2.849103,52.352685,16.772564c15.670595,16.05955,20.80706,39.651464,13.231415,60.772219s-26.535994,36.069564-48.841415,38.507781c-19.413897,2.091522-38.598047-5.600821-51.188924-20.525421s-16.942377-35.130248-11.611076-53.914579v0c-2-1.51-6.6-2.92-12-2.51-3.73.29-6.73,1.47-7.73,3v.08c1.159517,4.791894,1.713837,9.710228,1.65,14.64-.540133,32.290586-27.079132,58.070895-59.371802,57.674497s-58.190853-26.820383-57.938198-59.114497v0c.345359-27.906267,20.294579-51.709705,47.710696-56.928472s54.71546,9.590719,65.289304,35.418472h.11c2.977178-1.635474,6.287319-2.572436,9.68-2.74c5.09-.39,11.12.45,15.54,2.87Z" transform="translate(-10.598956 8.030715)" fill="#252626"/><path d="M344.65,374.65c-6-63.55-2.22-56-10.57-117.48l-.23-1.74l1.73-.27c23.79-3.67,27.65-4.19,48.9-5.58l1.69-.11l8,122.07-3.54.43L383,253.26c-19.14,1.26-23.66,1.85-45.17,5.17c8.25,61,4.44,52.89,10.34,115.89Z" transform="translate(-6.47 0)" fill="#252626"/><path d="M183.41,238.75c.43,7.26,22.61,13.66,28.16-.85" transform="translate(-6.47 0)" fill="none" stroke="#252626" stroke-width="4" stroke-linecap="round" stroke-miterlimit="10"/><g transform="translate(.000001 0.000001)"><path d="M68.53,97.71c22.25-7.35,96.29-16.78,122.06-5.16c2.89936,1.210067,4.755296,4.079415,4.67,7.22.64,54.1-12.55,71.77-15.91,75.53-1.277092,1.279322-2.658536,2.450037-4.13,3.5-2.53,1.94-6.35,4.87-6.51,6.6-.086736,1.844273.680456,3.625782,2.08,4.83c1.32709,1.283713,3.171313,1.88493,5,1.63l.34-.07c1.047707-.326538,2.178628-.258968,3.18.19c1.046248.659497,1.770846,1.724656,2,2.94.65,2.38,4.48,15.17,8.83,16.91s9.72-1.17,12.27-5c.34-.51.66-1.05,1-1.6.983687-1.98502,2.435409-3.701004,4.23-5c2.25-1.39,4.87-1.42,7.19-1.45.44,0,.89,0,1.33,0c1.3,0,4.43-.36,5.34-2.29.54-1.16.25-2.82-.87-5-1.32-2.49-6.65-8.86-8.17-11.24-3.88-6.07-6.33-14.86-5.49-38.14.18-4.77-.7-33.38,1.48-41.86.74-2.92,1.76-6.23,4.35-8.45c1.91785-1.452558,4.140323-2.450962,6.5-2.92c30.95-8.13,91.8-1.6,121.8,15" transform="translate(-6.47 0)" fill="none" stroke="#252626" stroke-width="4" stroke-linecap="round" stroke-miterlimit="10"/></g><g transform="translate(-10.108619 0.000001)"><g id="eUkh5p14t0J9_to" transform="translate(241.877879,131.089673)"><circle r="4.93" transform="translate(-0.000008,-0.000007)" fill="#252626"/></g></g><g transform="translate(-.999999 0.000001)"><g id="eUkh5p14t0J11_to" transform="translate(148.121234,131.089671)"><circle r="4.93" transform="translate(-0.000011,-0.000005)" fill="#252626"/></g></g><path d="M18,374.83l-3.56-.26c1.13-51.55,1-56.41,3-118.45l.06-1.75h1.75c24.07.33,28,.45,49.15,2.61l1.68.17-4,117.23-3.57-.16l3.86-113.86C47.28,258.45,42.72,258.28,21,258c-1.27,53.89-.89,63.89-3,116.83Z" transform="translate(-6.659824 1.302569)" fill="#252626"/></svg>
