<svg id="ej4raHsf0qV1" xmlns="http://www.w3.org/2000/svg" xmlns:xlink="http://www.w3.org/1999/xlink" viewBox="0 0 400 341" shape-rendering="geometricPrecision" text-rendering="geometricPrecision">
<style><![CDATA[
#ej4raHsf0qV2_to {animation: ej4raHsf0qV2_to__to 5600ms linear infinite normal forwards}@keyframes ej4raHsf0qV2_to__to { 0% {transform: translate(202.365006px,192.297468px)} 5.357143% {transform: translate(204.365006px,192.297468px)} 25% {transform: translate(204.365006px,192.297468px)} 30.357143% {transform: translate(200.365006px,192.297468px)} 50% {transform: translate(200.365006px,192.297468px)} 55.357143% {transform: translate(204.365006px,192.297468px)} 75% {transform: translate(204.365006px,192.297468px)} 100% {transform: translate(204.365006px,192.297468px)}} #ej4raHsf0qV5_to {animation: ej4raHsf0qV5_to__to 5600ms linear infinite normal forwards}@keyframes ej4raHsf0qV5_to__to { 0% {transform: translate(3.871044px,8.030715px)} 5.357143% {transform: translate(7.871044px,8.030715px)} 25% {transform: translate(7.871044px,8.030715px)} 30.357143% {transform: translate(3.871044px,8.030715px)} 50% {transform: translate(3.871044px,8.030715px)} 55.357143% {transform: translate(8.871044px,8.030715px)} 75% {transform: translate(8.871044px,8.030715px)} 80.357143% {transform: translate(6.871044px,8.030715px)} 100% {transform: translate(6.871044px,8.030715px)}} #ej4raHsf0qV7_to {animation: ej4raHsf0qV7_to__to 5600ms linear infinite normal forwards}@keyframes ej4raHsf0qV7_to__to { 0% {transform: translate(191.02px,237.9px)} 5.357143% {transform: translate(192.02px,237.9px)} 25% {transform: translate(192.02px,237.9px)} 30.357143% {transform: translate(190.02px,237.9px)} 50% {transform: translate(190.02px,237.9px)} 55.357143% {transform: translate(192.02px,237.9px)} 75% {transform: translate(192.02px,237.9px)} 78.571429% {transform: translate(191.02px,237.9px)} 100% {transform: translate(191.02px,237.9px)}} #ej4raHsf0qV7_ts {animation: ej4raHsf0qV7_ts__ts 5600ms linear infinite normal forwards}@keyframes ej4raHsf0qV7_ts__ts { 0% {transform: scale(1,1)} 82.142857% {transform: scale(1,1)} 87.5% {transform: scale(1.25,1.25)} 96.428571% {transform: scale(1.2,1.2)} 100% {transform: scale(1,1)}} #ej4raHsf0qV9_to {animation: ej4raHsf0qV9_to__to 5600ms linear infinite normal forwards}@keyframes ej4raHsf0qV9_to__to { 0% {transform: translate(7.97px,0.024254px)} 5.357143% {transform: translate(9.97px,0.024254px)} 25% {transform: translate(9.97px,0.024254px)} 30.357143% {transform: translate(5.97px,0.024254px)} 50% {transform: translate(5.97px,0.024254px)} 55.357143% {transform: translate(8.97px,0.024254px)} 75% {transform: translate(8.97px,0.024254px)} 100% {transform: translate(8.97px,0.024254px)}} #ej4raHsf0qV11_to {animation: ej4raHsf0qV11_to__to 5600ms linear infinite normal forwards}@keyframes ej4raHsf0qV11_to__to { 0% {offset-distance: 0%} 5.357143% {offset-distance: 17.977528%} 25% {offset-distance: 17.977528%} 30.357143% {offset-distance: 51.685393%} 50% {offset-distance: 51.685393%} 55.357143% {offset-distance: 85.393258%} 75% {offset-distance: 85.393258%} 80.357143% {offset-distance: 100%} 100% {offset-distance: 100%}} #ej4raHsf0qV12_to {animation: ej4raHsf0qV12_to__to 5600ms linear infinite normal forwards}@keyframes ej4raHsf0qV12_to__to { 0% {offset-distance: 0%} 5.357143% {offset-distance: 17.977528%} 25% {offset-distance: 17.977528%} 30.357143% {offset-distance: 51.685393%} 50% {offset-distance: 51.685393%} 55.357143% {offset-distance: 85.393258%} 75% {offset-distance: 85.393258%} 80.357143% {offset-distance: 100%} 100% {offset-distance: 100%}} #ej4raHsf0qV15_to {animation: ej4raHsf0qV15_to__to 5600ms linear infinite normal forwards}@keyframes ej4raHsf0qV15_to__to { 0% {transform: translate(7.780176px,-4.697431px)} 5.357143% {transform: translate(9.780176px,-6.697431px)} 25% {transform: translate(9.780176px,-6.697431px)} 30.357143% {transform: translate(6.780176px,-3.697431px)} 50% {transform: translate(6.780176px,-3.697431px)} 55.357143% {transform: translate(9.780176px,-6.697431px)} 75% {transform: translate(9.780176px,-6.697431px)} 80.357143% {transform: translate(10.780176px,-5.697431px)} 100% {transform: translate(10.780176px,-5.697431px)}} #ej4raHsf0qV16_to {animation: ej4raHsf0qV16_to__to 5600ms linear infinite normal forwards}@keyframes ej4raHsf0qV16_to__to { 0% {transform: translate(399.230636px,-4.23507px)} 5.357143% {transform: translate(400.230636px,-3.23507px)} 25% {transform: translate(400.230636px,-3.23507px)} 30.357143% {transform: translate(397.230636px,-6.23507px)} 50% {transform: translate(397.230636px,-6.23507px)} 55.357143% {transform: translate(400.230636px,-3.23507px)} 75% {transform: translate(400.230636px,-3.23507px)} 80.357143% {transform: translate(398.230636px,-5.23507px)} 100% {transform: translate(398.230636px,-5.23507px)}}
]]></style>
<g id="ej4raHsf0qV2_to" transform="translate(202.365006,192.297468)"><g transform="translate(-202.365005,-192.297468)"><path d="M380.5,374.77c-3.63-94.46.14-143.43-9.1-237.5-2.84-29-6.49-59.4-23.44-83.08-14.07-19.66-36.06-25.617052-59.1-32.977052s-153.274493-21.45-201.134493,0C62.875507,32.362948,51.19,55.45,45.82,82.16c-8.94,44.33-6.43,90-6.31,135.27L37.17,374.75Z" transform="translate(-7.196794 0)" fill="#fcd06e"/></g></g><g transform="translate(0 0.000001)"><g id="ej4raHsf0qV5_to" transform="translate(3.871044,8.030715)"><path d="M232.2,91.05c-14.653169,14.300702-19.25059,36.019314-11.649009,55.030927s25.90561,31.573336,46.379009,31.829073c2.044141.02127,4.08774-.078906,6.12-.3c22.031964-2.399224,39.942875-18.848708,44.204191-40.597384s-6.117499-43.741093-25.614953-54.277364-43.581389-7.167253-59.439238,8.314748ZM83.77,125c-.25338,20.478406,11.855291,39.0926,30.678805,47.161346s40.654122,4.002708,55.310526-10.301806s19.251672-36.029883,11.642673-55.043889-25.923487-31.571382-46.402004-31.815651c-2.044027-.029568-4.087927.067284-6.12.29C103.456372,78.107974,84.113781,99.422986,83.77,125Zm130.14-21.56c7.909227-17.777522,24.115026-30.479493,43.267315-33.912564s38.761019,2.849103,52.352685,16.772564c15.670595,16.05955,20.80706,39.651464,13.231415,60.772219s-26.535994,36.069564-48.841415,38.507781c-19.413897,2.091522-38.598047-5.600821-51.188924-20.525421s-16.942377-35.130248-11.611076-53.914579v0c-2-1.51-6.6-2.92-12-2.51-3.73.29-6.73,1.47-7.73,3v.08c1.159517,4.791894,1.713837,9.710228,1.65,14.64-.540133,32.290586-27.079132,58.070895-59.371802,57.674497s-58.190853-26.820383-57.938198-59.114497v0c.345359-27.906267,20.294579-51.709705,47.710696-56.928472s54.71546,9.590719,65.289304,35.418472h.11c2.977178-1.635474,6.287319-2.572436,9.68-2.74c5.09-.39,11.12.45,15.54,2.87Z" transform="translate(-14.47,0)" fill="#252626"/></g></g><g><g id="ej4raHsf0qV7_to" transform="translate(191.02,237.9)"><g id="ej4raHsf0qV7_ts" transform="scale(1,1)"><path d="M183.41,238.75c.43,7.26,22.61,13.66,28.16-.85" transform="translate(-197.489995,-237.9)" fill="none" stroke="#252626" stroke-width="4" stroke-linecap="round" stroke-miterlimit="10"/></g></g></g><g transform="translate(.000001 0.000001)"><g id="ej4raHsf0qV9_to" transform="translate(7.97,0.024254)"><path d="M68.53,97.71c22.25-7.35,96.29-16.78,122.06-5.16c2.89936,1.210067,4.755296,4.079415,4.67,7.22.64,54.1-12.55,71.77-15.91,75.53-1.277092,1.279322-2.658536,2.450037-4.13,3.5-2.53,1.94-6.35,4.87-6.51,6.6-.086736,1.844273.680456,3.625782,2.08,4.83c1.32709,1.283713,3.171313,1.88493,5,1.63l.34-.07c1.047707-.326538,2.178628-.258968,3.18.19c1.046248.659497,1.770846,1.724656,2,2.94.65,2.38,4.48,15.17,8.83,16.91s9.72-1.17,12.27-5c.34-.51.66-1.05,1-1.6.983687-1.98502,2.435409-3.701004,4.23-5c2.25-1.39,4.87-1.42,7.19-1.45.44,0,.89,0,1.33,0c1.3,0,4.43-.36,5.34-2.29.54-1.16.25-2.82-.87-5-1.32-2.49-6.65-8.86-8.17-11.24-3.88-6.07-6.33-14.86-5.49-38.14.18-4.77-.7-33.38,1.48-41.86.74-2.92,1.76-6.23,4.35-8.45c1.91785-1.452558,4.140323-2.450962,6.5-2.92c30.95-8.13,91.8-1.6,121.8,15" transform="translate(-14.44,-0.024254)" fill="none" stroke="#252626" stroke-width="4" stroke-linecap="round" stroke-miterlimit="10"/></g></g><g transform="translate(-2.999999 0.000001)"><g id="ej4raHsf0qV11_to" style="offset-path:path('M241.877879,131.089673C241.877879,131.089673,255.477879,131.089673,257.877879,131.089673Q257.877879,131.089673,257.877879,131.089673Q257.877879,131.089673,227.877879,131.089673L227.877879,131.089673L257.877879,131.089673L257.877879,131.089673L244.877879,131.089673L244.877879,131.089673');offset-rotate:0deg"><circle r="4.93" transform="translate(-0.000008,-0.000007)" fill="#252626"/></g><g id="ej4raHsf0qV12_to" style="offset-path:path('M148.121234,131.089671C148.121234,131.089671,164.121234,131.089671,164.121234,131.089671Q164.121234,131.089671,164.121234,131.089671L134.121234,131.089671L134.121234,131.089671L164.121234,131.089671L164.121234,131.089671L151.121234,131.089671L151.121234,131.089671');offset-rotate:0deg"><circle r="4.93" transform="translate(-0.000011,-0.000005)" fill="#252626"/></g></g><g transform="translate(-3.327273 5)"><g id="ej4raHsf0qV15_to" transform="translate(7.780176,-4.697431)"><path d="M18,374.83l-3.56-.26c1.13-51.55,1-56.41,3-118.45l.06-1.75h1.75c24.07.33,28,.45,49.15,2.61l1.68.17-4,117.23-3.57-.16l3.86-113.86C47.28,258.45,42.72,258.28,21,258c-1.27,53.89-.89,63.89-3,116.83Z" transform="scale(1.152772,1) translate(-14.44,0)" fill="#252626"/></g><g id="ej4raHsf0qV16_to" transform="translate(399.230636,-4.23507)"><path d="M18,374.83l-3.56-.26c1.13-51.55,1-56.41,3-118.45l.06-1.75h1.75c24.07.33,28,.45,49.15,2.61l1.68.17-4,117.23-3.57-.16l3.86-113.86C47.28,258.45,42.72,258.28,21,258c-1.27,53.89-.89,63.89-3,116.83Z" transform="scale(-1.152772,1) translate(-14.44,0)" fill="#252626"/></g></g></svg>
